<svg width="584" height="115" viewBox="0 0 584 115" fill="none" xmlns="http://www.w3.org/2000/svg">
<path d="M34.668 95H16.748L28.6133 38.9453H8.34961L11.4258 24.541H69.9219L66.8457 38.9453H46.582L34.668 95ZM75.293 62.4316H95.6543C95.7194 62.2689 95.752 62.041 95.752 61.748C95.752 61.4551 95.752 61.1784 95.752 60.918C95.752 59.3555 95.3939 57.9557 94.6777 56.7188C93.9941 55.4492 93.0013 54.4401 91.6992 53.6914C90.3971 52.9427 88.8021 52.5684 86.9141 52.5684C85.026 52.5684 83.2845 52.9915 81.6895 53.8379C80.127 54.6517 78.776 55.8073 77.6367 57.3047C76.5299 58.7695 75.7487 60.4785 75.293 62.4316ZM82.7637 96.2207C77.7507 96.2207 73.4049 95.2604 69.7266 93.3398C66.0807 91.3867 63.265 88.6035 61.2793 84.9902C59.3262 81.377 58.3496 77.0801 58.3496 72.0996C58.3496 67.6074 59.0495 63.4408 60.4492 59.5996C61.849 55.7585 63.8346 52.4219 66.4062 49.5898C69.0104 46.7253 72.1029 44.5117 75.6836 42.9492C79.2643 41.3542 83.252 40.5566 87.6465 40.5566C92.3014 40.5566 96.3867 41.5007 99.9023 43.3887C103.451 45.2767 106.217 47.9297 108.203 51.3477C110.189 54.7656 111.182 58.7858 111.182 63.4082C111.182 64.7754 111.117 66.2402 110.986 67.8027C110.889 69.3652 110.677 70.7975 110.352 72.0996H73.6816C73.6491 72.36 73.6165 72.6367 73.584 72.9297C73.5514 73.1901 73.5352 73.4505 73.5352 73.7109C73.5352 75.6966 73.9258 77.487 74.707 79.082C75.5208 80.6445 76.6764 81.8652 78.1738 82.7441C79.6712 83.623 81.4453 84.0625 83.4961 84.0625C85.9375 84.0625 88.0208 83.4928 89.7461 82.3535C91.4714 81.2142 92.6432 79.7168 93.2617 77.8613H108.984C108.073 81.5072 106.396 84.7135 103.955 87.4805C101.546 90.2148 98.5352 92.3633 94.9219 93.9258C91.3086 95.4557 87.2559 96.2207 82.7637 96.2207ZM146.045 40.5566C150.667 40.5566 154.736 41.4355 158.252 43.1934C161.768 44.9186 164.502 47.2624 166.455 50.2246C168.408 53.1543 169.385 56.4421 169.385 60.0879C169.385 60.9017 169.385 61.4225 169.385 61.6504C169.385 61.8457 169.368 62.0247 169.336 62.1875H153.271C153.239 59.7786 152.523 57.8255 151.123 56.3281C149.723 54.8307 147.786 54.082 145.312 54.082C143.522 54.082 141.895 54.5378 140.43 55.4492C138.997 56.3281 137.744 57.5977 136.67 59.2578C135.628 60.8854 134.814 62.8385 134.229 65.1172C133.643 67.3633 133.35 69.8698 133.35 72.6367C133.35 74.6875 133.675 76.4779 134.326 78.0078C135.01 79.5052 135.954 80.6771 137.158 81.5234C138.395 82.3372 139.827 82.7441 141.455 82.7441C143.864 82.7441 145.882 82.0443 147.51 80.6445C149.17 79.2122 150.326 77.2428 150.977 74.7363H167.041C166.455 79.0007 164.958 82.7441 162.549 85.9668C160.14 89.1895 157.064 91.7122 153.32 93.5352C149.577 95.3581 145.394 96.2695 140.771 96.2695C135.791 96.2695 131.478 95.3255 127.832 93.4375C124.219 91.5169 121.436 88.8314 119.482 85.3809C117.529 81.9303 116.553 77.9102 116.553 73.3203C116.553 66.7122 117.757 60.9505 120.166 56.0352C122.607 51.1198 126.025 47.3112 130.42 44.6094C134.847 41.9076 140.055 40.5566 146.045 40.5566ZM169.58 95L184.57 24.541H201.27L195.801 49.9316H196.143C198.031 47.1322 200.423 44.9186 203.32 43.291C206.25 41.6309 209.619 40.8008 213.428 40.8008C216.715 40.8008 219.58 41.4518 222.021 42.7539C224.495 44.056 226.4 45.8301 227.734 48.0762C229.102 50.3223 229.785 52.8939 229.785 55.791C229.785 56.8001 229.72 57.8418 229.59 58.916C229.492 59.9902 229.313 61.097 229.053 62.2363L222.119 95H205.469L211.865 64.873C211.995 64.1569 212.093 63.5059 212.158 62.9199C212.223 62.3014 212.256 61.7155 212.256 61.1621C212.256 59.0462 211.491 57.3047 209.961 55.9375C208.464 54.5378 206.494 53.8379 204.053 53.8379C202.262 53.8379 200.602 54.2611 199.072 55.1074C197.542 55.9212 196.24 57.0605 195.166 58.5254C194.092 59.9902 193.359 61.6992 192.969 63.6523L186.328 95H169.58ZM375.146 80.5957L372.119 95H323.828L338.818 24.541H387.061L383.984 38.9453H353.662L350.684 53.0078H379.199L376.416 66.1914H347.9L344.824 80.5957H375.146ZM405.371 84.1113C407.031 84.1113 408.577 83.7858 410.01 83.1348C411.442 82.4837 412.663 81.5885 413.672 80.4492C414.681 79.2773 415.332 77.959 415.625 76.4941L416.504 72.5391L406.836 72.832C404.297 72.8971 402.262 73.4831 400.732 74.5898C399.202 75.6966 398.438 77.1452 398.438 78.9355C398.438 80.4655 399.072 81.7188 400.342 82.6953C401.644 83.6393 403.32 84.1113 405.371 84.1113ZM397.9 95.7812C394.971 95.7812 392.301 95.1628 389.893 93.9258C387.516 92.6562 385.628 90.9473 384.229 88.7988C382.861 86.6178 382.178 84.1276 382.178 81.3281C382.178 75.8594 384.294 71.5462 388.525 68.3887C392.79 65.1986 398.617 63.5059 406.006 63.3105L418.555 62.9199L419.189 59.7949C419.287 59.3717 419.336 59.0299 419.336 58.7695C419.368 58.5091 419.385 58.265 419.385 58.0371C419.385 56.5072 418.717 55.2865 417.383 54.375C416.081 53.431 414.29 52.959 412.012 52.959C410.547 52.959 409.245 53.1706 408.105 53.5938C406.966 53.9844 406.022 54.5703 405.273 55.3516C404.525 56.1003 403.971 57.028 403.613 58.1348H388.232C388.883 54.554 390.332 51.4616 392.578 48.8574C394.857 46.2207 397.754 44.1862 401.27 42.7539C404.785 41.2891 408.773 40.5566 413.232 40.5566C417.725 40.5566 421.663 41.2402 425.049 42.6074C428.434 43.9421 431.071 45.8138 432.959 48.2227C434.88 50.599 435.84 53.3822 435.84 56.5723C435.84 57.2884 435.791 58.0534 435.693 58.8672C435.628 59.681 435.531 60.3646 435.4 60.918L428.174 95H411.865L413.232 88.7012H412.891C411.947 90.1009 410.726 91.3379 409.229 92.4121C407.731 93.4863 406.022 94.3164 404.102 94.9023C402.214 95.4883 400.146 95.7812 397.9 95.7812ZM444.385 58.0371C444.385 54.5215 445.345 51.4616 447.266 48.8574C449.186 46.2533 451.888 44.235 455.371 42.8027C458.854 41.3379 462.956 40.6055 467.676 40.6055C472.103 40.6055 476.009 41.3542 479.395 42.8516C482.812 44.3164 485.498 46.3672 487.451 49.0039C489.437 51.6406 490.479 54.6842 490.576 58.1348H475.439C475.374 56.8978 474.984 55.8236 474.268 54.9121C473.584 53.9681 472.656 53.2357 471.484 52.7148C470.312 52.194 468.962 51.9336 467.432 51.9336C465.967 51.9336 464.697 52.1289 463.623 52.5195C462.581 52.9102 461.768 53.4473 461.182 54.1309C460.628 54.8145 460.352 55.6283 460.352 56.5723C460.352 57.7441 460.84 58.7044 461.816 59.4531C462.793 60.2018 464.632 61.0319 467.334 61.9434L472.998 63.7988C478.044 65.4915 481.624 67.4609 483.74 69.707C485.856 71.9206 486.914 74.8014 486.914 78.3496C486.914 81.8978 485.905 85.0228 483.887 87.7246C481.901 90.4264 479.102 92.526 475.488 94.0234C471.875 95.5208 467.643 96.2695 462.793 96.2695C457.878 96.2695 453.581 95.5208 449.902 94.0234C446.257 92.526 443.392 90.4102 441.309 87.6758C439.258 84.9414 438.167 81.7676 438.037 78.1543H454.004C454.167 80.1074 455.062 81.7188 456.689 82.9883C458.35 84.2253 460.547 84.8438 463.281 84.8438C464.746 84.8438 465.999 84.6647 467.041 84.3066C468.083 83.916 468.88 83.3626 469.434 82.6465C470.02 81.9303 470.312 81.1003 470.312 80.1562C470.312 79.0495 469.824 78.138 468.848 77.4219C467.904 76.7057 466.13 75.9245 463.525 75.0781L458.74 73.4668C453.825 71.8392 450.195 69.7721 447.852 67.2656C445.54 64.7591 444.385 61.6829 444.385 58.0371ZM511.719 62.4316H532.08C532.145 62.2689 532.178 62.041 532.178 61.748C532.178 61.4551 532.178 61.1784 532.178 60.918C532.178 59.3555 531.82 57.9557 531.104 56.7188C530.42 55.4492 529.427 54.4401 528.125 53.6914C526.823 52.9427 525.228 52.5684 523.34 52.5684C521.452 52.5684 519.71 52.9915 518.115 53.8379C516.553 54.6517 515.202 55.8073 514.062 57.3047C512.956 58.7695 512.174 60.4785 511.719 62.4316ZM519.189 96.2207C514.176 96.2207 509.831 95.2604 506.152 93.3398C502.507 91.3867 499.691 88.6035 497.705 84.9902C495.752 81.377 494.775 77.0801 494.775 72.0996C494.775 67.6074 495.475 63.4408 496.875 59.5996C498.275 55.7585 500.26 52.4219 502.832 49.5898C505.436 46.7253 508.529 44.5117 512.109 42.9492C515.69 41.3542 519.678 40.5566 524.072 40.5566C528.727 40.5566 532.812 41.5007 536.328 43.3887C539.876 45.2767 542.643 47.9297 544.629 51.3477C546.615 54.7656 547.607 58.7858 547.607 63.4082C547.607 64.7754 547.542 66.2402 547.412 67.8027C547.314 69.3652 547.103 70.7975 546.777 72.0996H510.107C510.075 72.36 510.042 72.6367 510.01 72.9297C509.977 73.1901 509.961 73.4505 509.961 73.7109C509.961 75.6966 510.352 77.487 511.133 79.082C511.947 80.6445 513.102 81.8652 514.6 82.7441C516.097 83.623 517.871 84.0625 519.922 84.0625C522.363 84.0625 524.447 83.4928 526.172 82.3535C527.897 81.2142 529.069 79.7168 529.688 77.8613H545.41C544.499 81.5072 542.822 84.7135 540.381 87.4805C537.972 90.2148 534.961 92.3633 531.348 93.9258C527.734 95.4557 523.682 96.2207 519.189 96.2207Z" fill="#0A007C"/>
<path d="M249.854 95H231.934L246.924 24.541H264.844L249.854 95ZM295.801 95H277.881L289.746 38.9453H269.482L272.559 24.541H331.055L327.979 38.9453H307.715L295.801 95Z" fill="#9498FF"/>
</svg>
